# xmcd CD database file
#
# Track frame offsets:
#	150
#	21526
#	33442
#	46591
#	57888
#	69386
#	78964
#	95805
#	107559
#	119615
#	136398
#	156193
#	170966
#	181509
#	194131
#	211187
#	225621
#
# Disc length: 3173 seconds
#
# Revision: 0
# Processed by: cddbd v1.5PL3 Copyright (c) Steve Scherf et al.
# Submitted via: CDex 1.51
#
DISCID=ec0c6311
DTITLE=Nati Cano's Mariachi los camperos - !Viva el Mariachi!
DYEAR=2002
DGENRE=Salsa
TTITLE0=Los arrieros
TTITLE1=San Miguel El Alto
TTITLE2=Se me hizo facil
TTITLE3=El Gustito
TTITLE4=Gema
TTITLE5=El Autlense
TTITLE6=Paloma Negra
TTITLE7=Ojitos verdes
TTITLE8=Arboles de la Barranca
TTITLE9=La malaguena
TTITLE10=Virgencita de Talpa
TTITLE11=Que te vas, te vas
TTITLE12=Amor Ciego
TTITLE13=El jilguerillo
TTITLE14=Tequila con limon
TTITLE15=Entre suspiro y suspiro
TTITLE16=El Cihualteco
EXTD=YEAR: 2002
EXTT0=
EXTT1=
EXTT2=
EXTT3=
EXTT4=
EXTT5=
EXTT6=
EXTT7=
EXTT8=
EXTT9=
EXTT10=
EXTT11=
EXTT12=
EXTT13=
EXTT14=
EXTT15=
EXTT16=
PLAYORDER=
